# xmcd CD database file
#
# Track frame offsets:
#	150
#	21090
#	38413
#	59848
#	80900
#	102095
#	125808
#	138030
#	168115
#	185438
#	208625
#	234458
#	248628
#	262825
#
# Disc length: 3682 seconds
#
# Revision: 0
# Processed by: cddbd v1.4PL0 Copyright (c) Steve Scherf et al.
# Submitted via: CDex 1.51
#
DISCID=b70e600e
DTITLE=Bluesness By Leigh Blond - Bluesness By Leigh Blond
DYEAR=1992
DGENRE=Blues
TTITLE0=Set You Free
TTITLE1=Back Scratch Blues
TTITLE2=No Reason
TTITLE3=V.S.O.P.
TTITLE4=I Don't Care No More
TTITLE5=Whitbread Hug
TTITLE6=Cajun Traditional
TTITLE7=Flying
TTITLE8=The Heart In Me
TTITLE9=The Change Is Coming
TTITLE10=Morning After Blues
TTITLE11=K.K. Shuffle
TTITLE12=Searching
TTITLE13=Whitbread Hug Reprise
EXTD=YEAR: 1992
EXTT0=
EXTT1=
EXTT2=
EXTT3=
EXTT4=
EXTT5=
EXTT6=
EXTT7=
EXTT8=
EXTT9=
EXTT10=
EXTT11=
EXTT12=
EXTT13=
PLAYORDER=
